<svg width="79" height="22" viewBox="0 0 79 22" fill="none" xmlns="http://www.w3.org/2000/svg">
<path d="M10.9127 15.8389C10.5198 16.4404 10.3234 16.8306 10.3234 17.0095C10.3234 17.1883 10.397 17.3184 10.5444 17.3997C10.5444 17.4159 10.397 17.5379 10.1024 17.7655C9.84045 17.8955 9.54579 17.9606 9.21839 17.9606C8.89099 17.9606 8.65362 17.9199 8.5063 17.8386C8.35897 17.7736 8.30986 17.6598 8.35897 17.4972C8.58814 16.7656 9.44757 15.3024 10.9372 13.1075C12.4269 10.8964 13.4255 9.33566 13.9329 8.42521C15.0297 6.45798 15.5781 4.88908 15.5781 3.71849C15.5781 3.23075 15.4963 2.81617 15.3326 2.47475C15.0052 1.80817 14.2276 1.47488 12.9998 1.47488C11.0846 1.47488 9.1038 2.29591 7.05755 3.93798C5.42056 5.25488 4.16826 6.65308 3.30065 8.13256C2.43304 9.59579 1.99924 10.9046 1.99924 12.0589C1.99924 13.7172 2.73589 14.5626 4.20918 14.5951C4.27466 14.5951 4.34014 14.5951 4.40562 14.5951C6.28817 14.5951 7.74509 13.9204 8.7764 12.571C9.16928 12.0345 9.36572 11.5793 9.36572 11.2053C9.36572 10.8314 9.28387 10.5957 9.12017 10.4981C9.1038 10.4819 9.09561 10.4493 9.09561 10.4006C9.09561 10.3518 9.14472 10.3274 9.24294 10.3274C9.66856 10.3274 9.88137 10.6038 9.88137 11.1566C9.88137 11.498 9.70949 11.9613 9.36572 12.5466C9.03832 13.1319 8.449 13.6847 7.59776 14.2049C6.74653 14.7252 5.75614 14.9853 4.62662 14.9853C3.49709 14.9853 2.59674 14.6358 1.92558 13.9367C1.25441 13.2376 0.918823 12.319 0.918823 11.1809C0.918823 8.61217 2.60493 5.9865 5.97714 3.30392C6.84475 2.62108 7.98246 2.06017 9.39027 1.62121C10.8145 1.18224 12.1732 0.962753 13.4664 0.962753C14.7596 0.962753 15.6354 1.19037 16.0938 1.64559C16.5685 2.08456 16.8059 2.67798 16.8059 3.42585C16.8059 4.56392 16.3393 6.1003 15.4062 8.03501C15.1116 8.63656 14.4486 9.73398 13.4173 11.3273L15.308 8.93734C16.2247 7.7505 17.8126 6.05966 20.0717 3.86482C20.5628 3.39333 21.103 3.00314 21.6923 2.69424C22.298 2.36908 22.8136 2.2065 23.2393 2.2065C23.8286 2.2065 24.1232 2.5154 24.1232 3.1332C24.1232 3.66972 23.8613 4.48262 23.3375 5.57192C22.83 6.64495 22.3143 7.66921 21.7905 8.64469C21.2667 9.60392 20.9475 10.238 20.8329 10.5469C20.7183 10.8395 20.6364 11.0753 20.5873 11.2541C20.5382 11.4329 20.5055 11.5305 20.4891 11.5468C20.5382 11.4655 21.0784 10.8477 22.1097 9.69334C23.141 8.52275 24.6634 7.06766 26.6769 5.32804L30.6057 2.10895C30.9168 1.84882 31.195 1.71875 31.4406 1.71875C31.6861 1.71875 31.8826 1.92198 32.0299 2.32843C32.1936 2.73488 32.2755 3.06817 32.2755 3.3283C32.2755 3.57217 31.8826 4.09243 31.0968 4.88908C29.0506 6.97011 27.3154 9.24624 25.8912 11.7175C24.467 14.1887 23.7549 15.9527 23.7549 17.0095C23.7549 17.2859 23.804 17.4728 23.9022 17.5704C24.0005 17.6842 24.156 17.7167 24.3688 17.6679C24.5816 17.6354 25.0236 17.4728 25.6947 17.1802C26.3823 16.8875 26.8325 16.7168 27.0453 16.668C27.1271 16.7006 27.168 16.7412 27.168 16.79C27.168 17.0339 26.7342 17.3753 25.8666 17.8142C25.0154 18.2532 24.3688 18.4727 23.9268 18.4727C23.5012 18.4727 23.2393 18.3995 23.141 18.2532C22.8464 17.8305 22.699 17.3184 22.699 16.7168C22.699 15.3186 23.4521 13.3108 24.9581 10.6932C25.9239 9.05114 27.4136 6.84004 29.4271 4.05991C27.8556 5.32804 25.7275 7.27088 23.0428 9.88843C20.3581 12.506 18.5984 14.5545 17.7635 16.034C17.3379 16.7981 16.8222 17.1802 16.2165 17.1802C15.9383 17.1802 15.7991 17.0826 15.7991 16.8875C15.7991 16.8225 15.9628 16.5299 16.2902 16.0096C16.634 15.4893 17.3788 14.27 18.5247 12.3515C21.3403 7.49037 22.7482 4.56392 22.7482 3.57217C22.7482 3.31204 22.6581 3.18198 22.478 3.18198C22.2161 3.18198 21.8314 3.40146 21.324 3.84043C19.5069 5.35243 17.5752 7.32779 15.529 9.7665C13.4828 12.2052 11.944 14.2293 10.9127 15.8389Z" fill="black" fill-opacity="0.7"/>
<path d="M36.5908 9.54701L36.9346 9.47385C37.1146 9.47385 37.2865 9.54701 37.4502 9.69334C37.6139 9.83966 37.6958 9.95346 37.6958 10.0348C37.6958 10.116 37.1883 10.9046 36.1734 12.4003C35.1584 13.8798 34.651 14.9122 34.651 15.4975C34.651 15.5462 34.6591 15.595 34.6755 15.6438C34.7574 16.0177 34.9374 16.2047 35.2157 16.2047C36.067 16.2047 37.6221 14.8065 39.8812 12.0101C39.9303 11.9451 39.9876 11.9126 40.053 11.9126C40.1185 11.9126 40.1513 11.9776 40.1513 12.1077C40.1513 12.2215 40.0776 12.3759 39.9303 12.571C37.8349 15.3511 36.2388 16.7412 35.1421 16.7412C34.9947 16.7412 34.8556 16.7168 34.7246 16.668C34.0043 16.3917 33.6442 15.8551 33.6442 15.0585C33.6442 14.7821 33.6769 14.5057 33.7424 14.2293L32.22 15.6926C31.2542 16.538 30.5503 16.9607 30.1083 16.9607C29.6827 16.9607 29.2734 16.8225 28.8806 16.5461C28.4386 16.2209 28.2176 15.7901 28.2176 15.2536C28.2176 14.0668 29.0524 12.6523 30.7222 11.0102C32.3919 9.35192 33.9225 8.52275 35.3139 8.52275C35.8541 8.52275 36.2143 8.70972 36.3944 9.08366C36.4435 9.21372 36.4844 9.32753 36.5171 9.42508C36.5499 9.50637 36.5744 9.54701 36.5908 9.54701ZM29.2489 15.5462C29.2489 16.1315 29.4535 16.4242 29.8627 16.4242C30.8122 16.4242 32.1054 15.3918 33.7424 13.327L36.3452 9.7665C36.2143 9.53888 36.0015 9.42508 35.7068 9.42508C34.7083 9.42508 33.3823 10.1973 31.7289 11.7419C30.0756 13.2701 29.2489 14.5382 29.2489 15.5462Z" fill="black" fill-opacity="0.7"/>
<path d="M40.1785 15.8389C39.5237 16.2941 39.0572 16.5217 38.7789 16.5217C38.4024 16.5217 38.2141 16.3185 38.2141 15.912C38.2141 15.7657 38.2632 15.5869 38.3614 15.3755C38.4597 15.1642 38.5579 15.0585 38.6561 15.0585C38.8034 15.0585 38.8362 15.1804 38.7543 15.4243C38.7052 15.6682 38.7789 15.7901 38.9753 15.7901C39.1717 15.7901 39.4091 15.6926 39.6874 15.4975L38.7543 14.7902C38.7216 14.7577 38.7052 14.7008 38.7052 14.6195C38.7052 14.5382 38.7871 14.4244 38.9508 14.2781C39.1145 14.1155 39.2372 14.0342 39.3191 14.0342C39.4173 14.0342 39.8184 14.3106 40.5223 14.8634C42.5521 12.5873 44.0418 11.0915 44.9913 10.3762C43.698 9.98598 42.7404 9.79088 42.1183 9.79088C41.9383 9.79088 41.7664 9.80714 41.6027 9.83966C41.439 9.85592 41.2589 9.95346 41.0625 10.1323C40.8824 10.2949 40.7924 10.4819 40.7924 10.6932C40.7924 10.9046 40.8824 11.0834 41.0625 11.2297C41.2425 11.3598 41.3326 11.4655 41.3326 11.5468C41.3326 11.628 41.2671 11.6687 41.1361 11.6687C41.0216 11.6687 40.8251 11.5061 40.5468 11.1809C40.2849 10.8558 40.1539 10.5225 40.1539 10.1811C40.1539 9.61204 40.5714 9.23811 41.4062 9.05927C41.8482 8.97798 42.2984 8.93734 42.7568 8.93734C43.2151 8.93734 44.3447 9.22998 46.1454 9.81527C46.3745 9.68521 46.6201 9.62017 46.882 9.62017C47.5695 9.62017 47.9133 9.8234 47.9133 10.2299C47.9133 10.3924 47.8069 10.5469 47.5941 10.6932C47.3813 10.8233 47.1275 10.8883 46.8329 10.8883C46.5382 10.8883 46.2681 10.8314 46.0226 10.7176C44.4674 11.6768 42.7977 13.1888 41.0134 15.2536L41.8973 15.9364C42.6013 16.3917 43.4198 16.6193 44.3528 16.6193C45.2859 16.6193 45.9735 16.4729 46.4155 16.1803C46.8574 15.8877 47.0784 15.5137 47.0784 15.0585C47.0784 14.8471 47.0375 14.652 46.9557 14.4732C46.8738 14.2781 46.9475 14.1806 47.1767 14.1806C47.2585 14.1806 47.3404 14.2781 47.4222 14.4732C47.5041 14.652 47.545 14.8715 47.545 15.1317C47.545 15.782 47.234 16.3185 46.6119 16.7412C45.9898 17.1639 45.1877 17.3753 44.2055 17.3753C43.1251 17.3753 42.2329 17.172 41.529 16.7656C41.2507 16.6193 40.8006 16.3104 40.1785 15.8389Z" fill="black" fill-opacity="0.7"/>
<path d="M54.8806 16.9851C54.7987 17.0013 54.6187 17.0095 54.3404 17.0095C54.0784 17.0095 53.8083 16.9038 53.5301 16.6924C53.2681 16.4811 53.1372 16.2128 53.1372 15.8877C53.1372 15.5462 53.1945 15.1723 53.3091 14.7659C53.44 14.3594 53.5301 14.0505 53.5792 13.8391C51.6966 16.0177 50.2233 17.107 49.1593 17.107C48.4881 17.107 48.1198 16.6924 48.0543 15.8633C48.0543 15.7982 48.0543 15.7413 48.0543 15.6926C48.0543 14.9935 48.4799 14.0505 49.3312 12.8637C48.8564 13.2864 48.3735 13.7741 47.8824 14.3269C47.8169 14.3919 47.7351 14.4244 47.6369 14.4244C47.5714 14.4244 47.5387 14.3838 47.5387 14.3025C47.5387 14.2212 47.6123 14.083 47.7596 13.8879L51.1482 9.93721C51.5738 9.44946 52.0076 9.20559 52.4496 9.20559C52.8916 9.20559 53.1126 9.35192 53.1126 9.64456C53.1126 9.75837 53.0635 9.86404 52.9653 9.96159C52.3105 10.5631 51.4838 11.563 50.4852 12.9612C49.503 14.3594 49.0119 15.3918 49.0119 16.0584C49.0119 16.351 49.1102 16.4973 49.3066 16.4973C49.9941 16.4973 50.9927 15.8226 52.3023 14.4732C52.7607 14.018 53.6119 13.0181 54.856 11.4736C56.1001 9.91282 56.9186 9.13243 57.3115 9.13243C57.9008 9.13243 58.1955 9.36004 58.1955 9.81527C58.1955 9.97785 57.8517 10.4493 57.1642 11.2297C56.2311 12.3515 55.519 13.2701 55.0279 13.9855C54.5368 14.6846 54.2913 15.2536 54.2913 15.6926C54.2913 16.1315 54.414 16.351 54.6596 16.351C54.7742 16.351 54.9051 16.3185 55.0525 16.2535C56.182 15.7657 57.5325 14.6277 59.104 12.8393C59.2022 12.7255 59.3005 12.6686 59.3987 12.6686C59.4969 12.6686 59.546 12.7255 59.546 12.8393C59.546 12.9368 59.4887 13.0506 59.3741 13.1807C58.6702 13.9936 57.8435 14.8146 56.8941 15.6438C55.9446 16.4567 55.2735 16.9038 54.8806 16.9851Z" fill="black" fill-opacity="0.7"/>
<path d="M63.4454 16.9607C62.2177 16.9607 61.6038 16.286 61.6038 14.9366C61.6038 14.2537 61.7839 13.5059 62.144 12.6929C62.5042 11.88 62.8971 11.1972 63.3227 10.6444C63.2408 10.6607 63.1344 10.6688 63.0035 10.6688C62.6106 10.6688 62.2832 10.3924 62.0213 9.83966L60.2042 12.1808C59.1893 13.4327 58.5999 14.0586 58.4362 14.0586C58.3544 14.0586 58.3135 14.0261 58.3135 13.9611C58.3135 13.7985 58.4526 13.5628 58.7309 13.2539C60.1551 11.6118 61.1618 10.2217 61.7512 9.08366C62.1277 7.66921 62.6024 6.96198 63.1753 6.96198C63.5518 6.96198 63.7401 7.12456 63.7401 7.44972C63.7401 7.77488 63.5355 8.18946 63.1262 8.69346L62.5369 9.47385C62.5369 9.81527 62.7906 9.98598 63.2981 9.98598C63.5928 9.98598 63.9202 9.8803 64.2803 9.66895L64.9187 9.27876C64.9515 9.2625 65.0333 9.25437 65.1643 9.25437C65.2952 9.25437 65.4344 9.33566 65.5817 9.49824C65.729 9.66082 65.7782 9.80714 65.7291 9.93721L64.0348 12.0589C62.9871 13.392 62.4632 14.4488 62.4632 15.2292C62.4632 15.9933 62.8234 16.3754 63.5437 16.3754C64.2967 16.3754 65.2216 15.9771 66.3184 15.1804C66.9732 14.7089 67.5707 14.1806 68.1109 13.5953C68.6183 13.01 68.8966 12.7173 68.9458 12.7173C69.0603 12.7173 69.1176 12.7824 69.1176 12.9124C69.1176 13.0262 69.044 13.1644 68.8966 13.327L68.1109 14.2049C67.6689 14.6602 67.1778 15.0991 66.6376 15.5219C65.3444 16.4811 64.2803 16.9607 63.4454 16.9607Z" fill="black" fill-opacity="0.7"/>
<path d="M66.7249 19.6677C67.5106 20.6431 68.19 21.1309 68.7629 21.1309C69.696 21.1309 70.7028 20.3911 71.7832 18.9117C72.5689 17.8224 73.3383 16.4486 74.0914 14.7902L75.0244 12.5466L71.4149 15.3511C70.3017 16.2128 69.4095 16.6437 68.7384 16.6437C68.3782 16.6437 68.0918 16.5217 67.879 16.2779C67.6661 16.034 67.5597 15.7576 67.5597 15.4487C67.5597 14.7496 68.1654 13.6034 69.3768 12.0101C70.5882 10.4006 71.4722 9.59579 72.0287 9.59579C72.5853 9.59579 72.8636 9.78275 72.8636 10.1567C72.8636 10.303 72.1351 11.1484 70.6782 12.6929C69.2377 14.2212 68.5174 15.2536 68.5174 15.7901C68.5174 16.0015 68.6565 16.1071 68.9348 16.1071C69.4586 16.1071 70.5063 15.4975 72.0778 14.2781C73.6657 13.0588 74.8607 12.0508 75.6629 11.2541C75.8429 11.0428 76.0967 10.7257 76.4241 10.303C76.7351 9.94533 77.0789 9.7665 77.4554 9.7665C77.8319 9.7665 78.0201 9.94533 78.0201 10.303C78.0201 10.368 77.6518 10.9452 76.9152 12.0345C76.1785 13.1238 75.7938 13.7009 75.7611 13.766C75.2536 14.7415 74.476 16.164 73.4284 18.0337C71.8405 20.57 70.2526 21.8381 68.6647 21.8381C68.1409 21.8381 67.6825 21.6105 67.2896 21.1553C66.8968 20.7163 66.7085 20.2204 66.7249 19.6677Z" fill="black" fill-opacity="0.7"/>
</svg>
