<svg width="32" height="32" viewBox="0 0 32 32" fill="none" xmlns="http://www.w3.org/2000/svg">
<path fill-rule="evenodd" clip-rule="evenodd" d="M0 1.90625C2.31001 1.90625 4.30423 3.42102 4.78012 5.53712L7.40143 17.1932C7.65147 18.3051 8.24155 19.3248 9.09978 20.1282C10.2731 21.2267 11.8646 21.8438 13.524 21.8438H28.5581C28.8254 21.8438 29.0422 21.6409 29.0422 21.3906C29.0422 21.1404 28.8254 20.9375 28.5581 20.9375H13.524C12.1213 20.9375 10.7761 20.4159 9.78431 19.4874C9.05887 18.8083 8.56009 17.9463 8.34874 17.0065L8.21375 16.4062H27.1152C27.8458 16.4062 28.5547 16.1735 29.1252 15.7462C30.2957 14.8696 31.0428 13.5909 31.1997 12.1953L32 5.07812H5.65847C4.98385 2.68601 2.66766 1 0 1V1.90625ZM5.86999 5.98438L8.00994 15.5H27.1152C27.626 15.5 28.1216 15.3373 28.5205 15.0385C29.489 14.3132 30.1071 13.2552 30.237 12.1005L30.9247 5.98438H5.86999ZM11.6169 29.0938C12.9535 29.0938 14.0371 28.0794 14.0371 26.8281C14.0371 25.5769 12.9535 24.5625 11.6169 24.5625C10.2802 24.5625 9.1967 25.5769 9.1967 26.8281C9.1967 28.0794 10.2802 29.0938 11.6169 29.0938ZM11.6169 30C13.4882 30 15.0051 28.5799 15.0051 26.8281C15.0051 25.0763 13.4882 23.6562 11.6169 23.6562C9.7456 23.6562 8.22863 25.0763 8.22863 26.8281C8.22863 28.5799 9.7456 30 11.6169 30ZM28.5581 26.8281C28.5581 28.0794 27.4746 29.0938 26.138 29.0938C24.8013 29.0938 23.7178 28.0794 23.7178 26.8281C23.7178 25.5769 24.8013 24.5625 26.138 24.5625C27.4746 24.5625 28.5581 25.5769 28.5581 26.8281ZM29.5262 26.8281C29.5262 28.5799 28.0092 30 26.138 30C24.2667 30 22.7497 28.5799 22.7497 26.8281C22.7497 25.0763 24.2667 23.6562 26.138 23.6562C28.0092 23.6562 29.5262 25.0763 29.5262 26.8281Z" fill="black"/>
</svg>
