<svg width="32" height="32" viewBox="0 0 32 32" fill="none" xmlns="http://www.w3.org/2000/svg">
<path fill-rule="evenodd" clip-rule="evenodd" d="M30 6H2C1.44772 6 1 6.44772 1 7V24C1 24.5523 1.44772 25 2 25H30C30.5523 25 31 24.5523 31 24V7C31 6.44772 30.5523 6 30 6ZM2 5C0.895431 5 0 5.89543 0 7V24C0 25.1046 0.895431 26 2 26H30C31.1046 26 32 25.1046 32 24V7C32 5.89543 31.1046 5 30 5H2Z" fill="black"/>
<path fill-rule="evenodd" clip-rule="evenodd" d="M1.59317 7.70942C1.75368 7.48471 2.06595 7.43267 2.29066 7.59317L15.1282 16.7628C15.6497 17.1354 16.3504 17.1354 16.8719 16.7628L29.7094 7.59317C29.9341 7.43267 30.2464 7.48471 30.4069 7.70942C30.5674 7.93413 30.5154 8.2464 30.2907 8.40691L17.4531 17.5766C16.5839 18.1975 15.4162 18.1975 14.5469 17.5766L1.70942 8.40691C1.48471 8.2464 1.43267 7.93413 1.59317 7.70942Z" fill="black"/>
</svg>
