<svg width="34" height="32" viewBox="0 0 34 32" fill="none" xmlns="http://www.w3.org/2000/svg">
<path fill-rule="evenodd" clip-rule="evenodd" d="M4.5 14.0264H29.5V29.0001C29.5 29.2762 29.2761 29.5001 29 29.5001C28.7239 29.5001 28.5 29.2762 28.5 29.0001V15.0264H5.5V29.0001C5.5 29.2762 5.27614 29.5001 5 29.5001C4.72386 29.5001 4.5 29.2762 4.5 29.0001V14.0264Z" fill="black"/>
<path fill-rule="evenodd" clip-rule="evenodd" d="M17.0001 3.44238L33.2214 11.4463C33.469 11.5685 33.5707 11.8683 33.4485 12.1159C33.3263 12.3636 33.0265 12.4653 32.7789 12.3431L17.0001 4.55749L1.22136 12.3431C0.973718 12.4653 0.673914 12.3636 0.551724 12.1159C0.429535 11.8683 0.53123 11.5685 0.778868 11.4463L17.0001 3.44238Z" fill="black"/>
</svg>
