<svg width="146" height="42" viewBox="0 0 146 42" fill="none" xmlns="http://www.w3.org/2000/svg">
<path d="M33.9451 17.1048C33.9451 26.2722 26.4614 33.7097 17.2225 33.7097C7.9837 33.7097 0.5 26.2722 0.5 17.1048C0.5 7.93747 7.9837 0.5 17.2225 0.5C26.4614 0.5 33.9451 7.93747 33.9451 17.1048Z" stroke="black"/>
<path d="M32.5809 17.1048C32.5809 25.524 25.708 32.3548 17.2225 32.3548C8.73711 32.3548 1.86417 25.524 1.86417 17.1048C1.86417 8.68573 8.73711 1.85484 17.2225 1.85484C25.708 1.85484 32.5809 8.68573 32.5809 17.1048Z" stroke="black"/>
<line x1="16.802" y1="15.7105" x2="16.802" y2="3.63716" stroke="black" stroke-width="0.5" stroke-linecap="round"/>
<line x1="16.802" y1="30.6138" x2="16.802" y2="18.5404" stroke="black" stroke-width="0.5" stroke-linecap="round"/>
<line x1="3.31937" y1="16.6855" x2="15.4793" y2="16.6855" stroke="black" stroke-width="0.5" stroke-linecap="round"/>
<line x1="18.3251" y1="16.6855" x2="30.485" y2="16.6855" stroke="black" stroke-width="0.5" stroke-linecap="round"/>
<line x1="0.25" y1="-0.25" x2="12.3667" y2="-0.25" transform="matrix(0.709527 0.704678 -0.709527 0.704678 18.0751 18.2903)" stroke="black" stroke-width="0.5" stroke-linecap="round"/>
<line x1="0.25" y1="-0.25" x2="12.3667" y2="-0.25" transform="matrix(0.709527 0.704678 -0.709527 0.704678 6.8208 7.1129)" stroke="black" stroke-width="0.5" stroke-linecap="round"/>
<line x1="0.25" y1="-0.25" x2="12.3667" y2="-0.25" transform="matrix(0.709527 -0.704678 0.709527 0.704678 18.0751 16.0037)" stroke="black" stroke-width="0.5" stroke-linecap="round"/>
<line x1="0.25" y1="-0.25" x2="12.3667" y2="-0.25" transform="matrix(0.709527 -0.704678 0.709527 0.704678 6.8208 27.0968)" stroke="black" stroke-width="0.5" stroke-linecap="round"/>
<path d="M58.5 24.8952C58.5 34.0625 51.0163 41.5 41.7774 41.5C32.5386 41.5 25.0549 34.0625 25.0549 24.8952C25.0549 15.7278 32.5386 8.29033 41.7774 8.29033C51.0163 8.29033 58.5 15.7278 58.5 24.8952Z" stroke="black"/>
<path d="M57.1358 24.8952C57.1358 33.3143 50.2629 40.1452 41.7774 40.1452C33.292 40.1452 26.4191 33.3143 26.4191 24.8952C26.4191 16.4761 33.292 9.64517 41.7774 9.64517C50.2629 9.64517 57.1358 16.4761 57.1358 24.8952Z" stroke="black"/>
<line x1="41.3569" y1="23.5009" x2="41.3569" y2="11.4275" stroke="black" stroke-width="0.5" stroke-linecap="round"/>
<line x1="41.3569" y1="38.4041" x2="41.3569" y2="26.3307" stroke="black" stroke-width="0.5" stroke-linecap="round"/>
<line x1="27.8743" y1="24.4758" x2="40.0342" y2="24.4758" stroke="black" stroke-width="0.5" stroke-linecap="round"/>
<line x1="42.88" y1="24.4758" x2="55.0399" y2="24.4758" stroke="black" stroke-width="0.5" stroke-linecap="round"/>
<line x1="0.25" y1="-0.25" x2="12.3667" y2="-0.25" transform="matrix(0.709527 0.704678 -0.709527 0.704678 42.63 26.0807)" stroke="black" stroke-width="0.5" stroke-linecap="round"/>
<line x1="0.25" y1="-0.25" x2="12.3667" y2="-0.25" transform="matrix(0.709527 0.704678 -0.709527 0.704678 31.3757 14.9032)" stroke="black" stroke-width="0.5" stroke-linecap="round"/>
<line x1="0.25" y1="-0.25" x2="12.3667" y2="-0.25" transform="matrix(0.709527 -0.704678 0.709527 0.704678 42.63 23.794)" stroke="black" stroke-width="0.5" stroke-linecap="round"/>
<line x1="0.25" y1="-0.25" x2="12.3667" y2="-0.25" transform="matrix(0.709527 -0.704678 0.709527 0.704678 31.3757 34.8871)" stroke="black" stroke-width="0.5" stroke-linecap="round"/>
<path d="M77.9127 30.8389C77.5198 31.4404 77.3234 31.8306 77.3234 32.0095C77.3234 32.1883 77.397 32.3184 77.5444 32.3997C77.5444 32.4159 77.397 32.5379 77.1024 32.7655C76.8404 32.8955 76.5458 32.9606 76.2184 32.9606C75.891 32.9606 75.6536 32.9199 75.5063 32.8386C75.359 32.7736 75.3099 32.6598 75.359 32.4972C75.5881 31.7656 76.4476 30.3024 77.9372 28.1075C79.4269 25.8964 80.4255 24.3357 80.9329 23.4252C82.0297 21.458 82.5781 19.8891 82.5781 18.7185C82.5781 18.2308 82.4963 17.8162 82.3326 17.4748C82.0052 16.8082 81.2276 16.4749 79.9998 16.4749C78.0846 16.4749 76.1038 17.2959 74.0576 18.938C72.4206 20.2549 71.1683 21.6531 70.3007 23.1326C69.433 24.5958 68.9992 25.9046 68.9992 27.0589C68.9992 28.7172 69.7359 29.5626 71.2092 29.5951C71.2747 29.5951 71.3401 29.5951 71.4056 29.5951C73.2882 29.5951 74.7451 28.9204 75.7764 27.571C76.1693 27.0345 76.3657 26.5793 76.3657 26.2053C76.3657 25.8314 76.2839 25.5957 76.1202 25.4981C76.1038 25.4819 76.0956 25.4493 76.0956 25.4006C76.0956 25.3518 76.1447 25.3274 76.2429 25.3274C76.6686 25.3274 76.8814 25.6038 76.8814 26.1566C76.8814 26.498 76.7095 26.9613 76.3657 27.5466C76.0383 28.1319 75.449 28.6847 74.5978 29.2049C73.7465 29.7252 72.7561 29.9853 71.6266 29.9853C70.4971 29.9853 69.5967 29.6358 68.9256 28.9367C68.2544 28.2376 67.9188 27.319 67.9188 26.1809C67.9188 23.6122 69.6049 20.9865 72.9771 18.3039C73.8447 17.6211 74.9825 17.0602 76.3903 16.6212C77.8145 16.1822 79.1732 15.9628 80.4664 15.9628C81.7596 15.9628 82.6354 16.1904 83.0938 16.6456C83.5685 17.0846 83.8059 17.678 83.8059 18.4259C83.8059 19.5639 83.3393 21.1003 82.4062 23.035C82.1116 23.6366 81.4486 24.734 80.4173 26.3273L82.308 23.9373C83.2247 22.7505 84.8126 21.0597 87.0717 18.8648C87.5628 18.3933 88.103 18.0031 88.6923 17.6942C89.298 17.3691 89.8136 17.2065 90.2393 17.2065C90.8286 17.2065 91.1232 17.5154 91.1232 18.1332C91.1232 18.6697 90.8613 19.4826 90.3375 20.5719C89.83 21.6449 89.3143 22.6692 88.7905 23.6447C88.2667 24.6039 87.9475 25.238 87.8329 25.5469C87.7183 25.8395 87.6364 26.0753 87.5873 26.2541C87.5382 26.4329 87.5055 26.5305 87.4891 26.5468C87.5382 26.4655 88.0784 25.8477 89.1097 24.6933C90.141 23.5228 91.6634 22.0677 93.6769 20.328L97.6057 17.1089C97.9168 16.8488 98.195 16.7188 98.4406 16.7188C98.6861 16.7188 98.8826 16.922 99.0299 17.3284C99.1936 17.7349 99.2755 18.0682 99.2755 18.3283C99.2755 18.5722 98.8826 19.0924 98.0968 19.8891C96.0506 21.9701 94.3154 24.2462 92.8912 26.7175C91.467 29.1887 90.7549 30.9527 90.7549 32.0095C90.7549 32.2859 90.804 32.4728 90.9022 32.5704C91.0005 32.6842 91.156 32.7167 91.3688 32.6679C91.5816 32.6354 92.0236 32.4728 92.6947 32.1802C93.3823 31.8875 93.8325 31.7168 94.0453 31.668C94.1271 31.7006 94.168 31.7412 94.168 31.79C94.168 32.0339 93.7342 32.3753 92.8666 32.8142C92.0154 33.2532 91.3688 33.4727 90.9268 33.4727C90.5012 33.4727 90.2393 33.3995 90.141 33.2532C89.8464 32.8305 89.699 32.3184 89.699 31.7168C89.699 30.3186 90.4521 28.3108 91.9581 25.6932C92.9239 24.0511 94.4136 21.84 96.4271 19.0599C94.8556 20.328 92.7275 22.2709 90.0428 24.8884C87.3581 27.506 85.5984 29.5545 84.7635 31.034C84.3379 31.7981 83.8222 32.1802 83.2165 32.1802C82.9383 32.1802 82.7991 32.0826 82.7991 31.8875C82.7991 31.8225 82.9628 31.5299 83.2902 31.0096C83.634 30.4893 84.3788 29.27 85.5247 27.3515C88.3403 22.4904 89.7482 19.5639 89.7482 18.5722C89.7482 18.312 89.6581 18.182 89.478 18.182C89.2161 18.182 88.8314 18.4015 88.324 18.8404C86.5069 20.3524 84.5752 22.3278 82.529 24.7665C80.4828 27.2052 78.944 29.2293 77.9127 30.8389Z" fill="black" fill-opacity="0.7"/>
<path d="M103.591 24.547L103.935 24.4739C104.115 24.4739 104.287 24.547 104.45 24.6933C104.614 24.8397 104.696 24.9535 104.696 25.0348C104.696 25.116 104.188 25.9046 103.173 27.4003C102.158 28.8798 101.651 29.9122 101.651 30.4975C101.651 30.5462 101.659 30.595 101.676 30.6438C101.757 31.0177 101.937 31.2047 102.216 31.2047C103.067 31.2047 104.622 29.8065 106.881 27.0101C106.93 26.9451 106.988 26.9126 107.053 26.9126C107.119 26.9126 107.151 26.9776 107.151 27.1077C107.151 27.2215 107.078 27.3759 106.93 27.571C104.835 30.3511 103.239 31.7412 102.142 31.7412C101.995 31.7412 101.856 31.7168 101.725 31.668C101.004 31.3917 100.644 30.8551 100.644 30.0585C100.644 29.7821 100.677 29.5057 100.742 29.2293L99.22 30.6926C98.2542 31.538 97.5503 31.9607 97.1083 31.9607C96.6827 31.9607 96.2734 31.8225 95.8806 31.5461C95.4386 31.2209 95.2176 30.7901 95.2176 30.2536C95.2176 29.0668 96.0524 27.6523 97.7222 26.0102C99.3919 24.3519 100.922 23.5228 102.314 23.5228C102.854 23.5228 103.214 23.7097 103.394 24.0837C103.443 24.2137 103.484 24.3275 103.517 24.4251C103.55 24.5064 103.574 24.547 103.591 24.547ZM96.2489 30.5462C96.2489 31.1315 96.4535 31.4242 96.8627 31.4242C97.8122 31.4242 99.1054 30.3918 100.742 28.327L103.345 24.7665C103.214 24.5389 103.001 24.4251 102.707 24.4251C101.708 24.4251 100.382 25.1973 98.7289 26.7419C97.0756 28.2701 96.2489 29.5382 96.2489 30.5462Z" fill="black" fill-opacity="0.7"/>
<path d="M107.179 30.8389C106.524 31.2941 106.057 31.5217 105.779 31.5217C105.402 31.5217 105.214 31.3185 105.214 30.912C105.214 30.7657 105.263 30.5869 105.361 30.3755C105.46 30.1642 105.558 30.0585 105.656 30.0585C105.803 30.0585 105.836 30.1804 105.754 30.4243C105.705 30.6682 105.779 30.7901 105.975 30.7901C106.172 30.7901 106.409 30.6926 106.687 30.4975L105.754 29.7902C105.722 29.7577 105.705 29.7008 105.705 29.6195C105.705 29.5382 105.787 29.4244 105.951 29.2781C106.114 29.1155 106.237 29.0342 106.319 29.0342C106.417 29.0342 106.818 29.3106 107.522 29.8634C109.552 27.5873 111.042 26.0915 111.991 25.3762C110.698 24.986 109.74 24.7909 109.118 24.7909C108.938 24.7909 108.766 24.8071 108.603 24.8397C108.439 24.8559 108.259 24.9535 108.062 25.1323C107.882 25.2949 107.792 25.4819 107.792 25.6932C107.792 25.9046 107.882 26.0834 108.062 26.2297C108.243 26.3598 108.333 26.4655 108.333 26.5468C108.333 26.628 108.267 26.6687 108.136 26.6687C108.022 26.6687 107.825 26.5061 107.547 26.1809C107.285 25.8558 107.154 25.5225 107.154 25.1811C107.154 24.612 107.571 24.2381 108.406 24.0593C108.848 23.978 109.298 23.9373 109.757 23.9373C110.215 23.9373 111.345 24.23 113.145 24.8153C113.375 24.6852 113.62 24.6202 113.882 24.6202C114.57 24.6202 114.913 24.8234 114.913 25.2299C114.913 25.3924 114.807 25.5469 114.594 25.6932C114.381 25.8233 114.128 25.8883 113.833 25.8883C113.538 25.8883 113.268 25.8314 113.023 25.7176C111.467 26.6768 109.798 28.1888 108.013 30.2536L108.897 30.9364C109.601 31.3917 110.42 31.6193 111.353 31.6193C112.286 31.6193 112.973 31.4729 113.415 31.1803C113.857 30.8877 114.078 30.5137 114.078 30.0585C114.078 29.8471 114.038 29.652 113.956 29.4732C113.874 29.2781 113.947 29.1806 114.177 29.1806C114.259 29.1806 114.34 29.2781 114.422 29.4732C114.504 29.652 114.545 29.8715 114.545 30.1317C114.545 30.782 114.234 31.3185 113.612 31.7412C112.99 32.1639 112.188 32.3753 111.206 32.3753C110.125 32.3753 109.233 32.172 108.529 31.7656C108.251 31.6193 107.801 31.3104 107.179 30.8389Z" fill="black" fill-opacity="0.7"/>
<path d="M121.881 31.9851C121.799 32.0013 121.619 32.0095 121.34 32.0095C121.078 32.0095 120.808 31.9038 120.53 31.6924C120.268 31.4811 120.137 31.2128 120.137 30.8877C120.137 30.5462 120.194 30.1723 120.309 29.7659C120.44 29.3594 120.53 29.0505 120.579 28.8391C118.697 31.0177 117.223 32.107 116.159 32.107C115.488 32.107 115.12 31.6924 115.054 30.8633C115.054 30.7982 115.054 30.7413 115.054 30.6926C115.054 29.9935 115.48 29.0505 116.331 27.8637C115.856 28.2864 115.374 28.7741 114.882 29.3269C114.817 29.3919 114.735 29.4244 114.637 29.4244C114.571 29.4244 114.539 29.3838 114.539 29.3025C114.539 29.2212 114.612 29.083 114.76 28.8879L118.148 24.9372C118.574 24.4495 119.008 24.2056 119.45 24.2056C119.892 24.2056 120.113 24.3519 120.113 24.6446C120.113 24.7584 120.064 24.864 119.965 24.9616C119.31 25.5631 118.484 26.563 117.485 27.9612C116.503 29.3594 116.012 30.3918 116.012 31.0584C116.012 31.351 116.11 31.4973 116.307 31.4973C116.994 31.4973 117.993 30.8226 119.302 29.4732C119.761 29.018 120.612 28.0181 121.856 26.4736C123.1 24.9128 123.919 24.1324 124.312 24.1324C124.901 24.1324 125.195 24.36 125.195 24.8153C125.195 24.9779 124.852 25.4493 124.164 26.2297C123.231 27.3515 122.519 28.2701 122.028 28.9855C121.537 29.6846 121.291 30.2536 121.291 30.6926C121.291 31.1315 121.414 31.351 121.66 31.351C121.774 31.351 121.905 31.3185 122.052 31.2535C123.182 30.7657 124.533 29.6277 126.104 27.8393C126.202 27.7255 126.3 27.6686 126.399 27.6686C126.497 27.6686 126.546 27.7255 126.546 27.8393C126.546 27.9368 126.489 28.0506 126.374 28.1807C125.67 28.9936 124.844 29.8146 123.894 30.6438C122.945 31.4567 122.273 31.9038 121.881 31.9851Z" fill="black" fill-opacity="0.7"/>
<path d="M130.445 31.9607C129.218 31.9607 128.604 31.286 128.604 29.9366C128.604 29.2537 128.784 28.5059 129.144 27.6929C129.504 26.88 129.897 26.1972 130.323 25.6444C130.241 25.6607 130.134 25.6688 130.003 25.6688C129.611 25.6688 129.283 25.3924 129.021 24.8397L127.204 27.1808C126.189 28.4327 125.6 29.0586 125.436 29.0586C125.354 29.0586 125.313 29.0261 125.313 28.9611C125.313 28.7985 125.453 28.5628 125.731 28.2539C127.155 26.6118 128.162 25.2217 128.751 24.0837C129.128 22.6692 129.602 21.962 130.175 21.962C130.552 21.962 130.74 22.1246 130.74 22.4497C130.74 22.7749 130.535 23.1895 130.126 23.6935L129.537 24.4739C129.537 24.8153 129.791 24.986 130.298 24.986C130.593 24.986 130.92 24.8803 131.28 24.6689L131.919 24.2788C131.951 24.2625 132.033 24.2544 132.164 24.2544C132.295 24.2544 132.434 24.3357 132.582 24.4982C132.729 24.6608 132.778 24.8071 132.729 24.9372L131.035 27.0589C129.987 28.392 129.463 29.4488 129.463 30.2292C129.463 30.9933 129.823 31.3754 130.544 31.3754C131.297 31.3754 132.222 30.9771 133.318 30.1804C133.973 29.7089 134.571 29.1806 135.111 28.5953C135.618 28.01 135.897 27.7173 135.946 27.7173C136.06 27.7173 136.118 27.7824 136.118 27.9124C136.118 28.0262 136.044 28.1644 135.897 28.327L135.111 29.2049C134.669 29.6602 134.178 30.0991 133.638 30.5219C132.344 31.4811 131.28 31.9607 130.445 31.9607Z" fill="black" fill-opacity="0.7"/>
<path d="M133.725 34.6677C134.511 35.6431 135.19 36.1309 135.763 36.1309C136.696 36.1309 137.703 35.3911 138.783 33.9117C139.569 32.8224 140.338 31.4486 141.091 29.7902L142.024 27.5466L138.415 30.3511C137.302 31.2128 136.41 31.6437 135.738 31.6437C135.378 31.6437 135.092 31.5217 134.879 31.2779C134.666 31.034 134.56 30.7576 134.56 30.4487C134.56 29.7496 135.165 28.6034 136.377 27.0101C137.588 25.4006 138.472 24.5958 139.029 24.5958C139.585 24.5958 139.864 24.7828 139.864 25.1567C139.864 25.303 139.135 26.1484 137.678 27.6929C136.238 29.2212 135.517 30.2536 135.517 30.7901C135.517 31.0015 135.657 31.1071 135.935 31.1071C136.459 31.1071 137.506 30.4975 139.078 29.2781C140.666 28.0588 141.861 27.0508 142.663 26.2541C142.843 26.0428 143.097 25.7257 143.424 25.303C143.735 24.9453 144.079 24.7665 144.455 24.7665C144.832 24.7665 145.02 24.9453 145.02 25.303C145.02 25.368 144.652 25.9452 143.915 27.0345C143.179 28.1238 142.794 28.7009 142.761 28.766C142.254 29.7415 141.476 31.164 140.428 33.0337C138.84 35.57 137.253 36.8381 135.665 36.8381C135.141 36.8381 134.683 36.6105 134.29 36.1553C133.897 35.7163 133.709 35.2204 133.725 34.6677Z" fill="black" fill-opacity="0.7"/>
</svg>
